<!-- By Sam Herbert (@sherb), for everyone. More @ http://goo.gl/7AJzbL -->
<svg width="250" height="100" viewBox="0 0 250 100" xmlns="http://www.w3.org/2000/svg" fill="#fff">
    <path d="M85,83.1L51.1,96.2c-0.6,0.2-1.3,0-1.6-0.5l-19.4-28c-4.6,1.5-9.6-0.8-11.4-5.4l-0.1-0.1
    c-1.4-3.5-0.5-7.4,2.2-9.9c-0.8-4.1-1.3-10.9,1.9-15.2c2.2-3,5.8-4.8,9.3-6.6c3.6-1.8,7-3.6,8.5-6.3c1.4-2.5,1.6-5.4,0.6-7.8
    c-0.7-1.7-2-3-3.4-3.4c-3.6-1-6.5-0.7-6.5-0.7c-0.6,0.1-1.2-0.3-1.4-0.9c-0.2-0.6,0-1.2,0.5-1.6c0.4-0.3,9.8-6.3,21.3,0.1
    c6.8,3.8,8.9,9.2,9.6,12.1c1.6-0.7,4.1-1.2,7.2-0.6c5.1,1.1,8.3,4,9.7,8.8c3.5,0.2,6.6,2.4,8,5.8l0.1,0.1c1.8,4.6-0.4,9.7-4.8,11.7
    l4.7,33.8C85.9,82.2,85.5,82.8,85,83.1z M60.9,89.5L83,80.9l-4.4-31.9L47.4,61.2L60.9,89.5z M55.7,91.5l2.6-1L44.8,62.2l-5.2,2
    L55.7,91.5z M51.1,93.3l2-0.8L37.1,65.2l-4.2,1.7L51.1,93.3z M37,10c0.4,0.1,0.9,0.2,1.4,0.3c2.2,0.6,4.1,2.5,5.2,5
    c1.3,3.2,1.1,6.9-0.7,10.1c-1.9,3.5-5.8,5.5-9.6,7.4c-3.2,1.6-6.6,3.4-8.4,5.8c-2.9,3.9-1.8,11-1.2,13.9c0.1,0.5-0.1,1-0.5,1.3
    c-2.2,1.8-3,4.7-2,7.4l0.1,0.1c1.3,3.3,5,4.9,8.3,3.7l50.2-19.6c3.3-1.3,4.9-5,3.7-8.3L83.4,37c-1-2.6-3.6-4.3-6.4-4.1
    c-0.7,0-1.3-0.4-1.4-1.1c0-0.2-0.1-0.4-0.1-0.6c-1-4-3.5-6.3-7.7-7.3c-4.1-0.9-6.8,1.1-6.8,1.1c-0.4,0.3-0.9,0.4-1.4,0.1
    c-0.5-0.2-0.8-0.7-0.8-1.2c0-0.3-0.4-7.4-8.5-11.9C45,9.3,40.4,9.3,37,10z M36.6,57c-0.3,0.1-0.6,0.1-1,0c-0.7-0.3-1.1-1-0.8-1.7
    l1-2.7c0.3-0.7,1-1.1,1.7-0.8c0.7,0.3,1.1,1,0.8,1.7l-1,2.7C37.3,56.6,37,56.9,36.6,57z M58.9,46.3c-0.4,0.2-1,0.1-1.4-0.2l-2.2-1.8
    c-0.6-0.5-0.7-1.3-0.2-1.9c0.5-0.6,1.3-0.7,1.9-0.2l2.2,1.8c0.6,0.5,0.7,1.3,0.2,1.9C59.3,46.1,59.2,46.2,58.9,46.3z M47.7,50.4
    c-0.1,0-0.1,0-0.2,0.1c-0.7,0.2-1.5-0.3-1.6-1l-0.8-3.5c-0.2-0.7,0.3-1.5,1-1.6c0.7-0.2,1.5,0.3,1.6,1l0.8,3.5
    C48.7,49.5,48.3,50.1,47.7,50.4z M75.5,38.7c-0.4,0.2-1,0.1-1.3-0.2l-1.7-1.4c-0.6-0.5-0.7-1.3-0.2-1.9c0.5-0.6,1.3-0.7,1.9-0.2
    l1.7,1.4c0.6,0.5,0.7,1.3,0.2,1.9C75.9,38.5,75.7,38.6,75.5,38.7z M65.5,40.6c-0.5,0.2-1,0.1-1.4-0.3l-2.7-2.4
    c-0.6-0.5-0.6-1.4-0.1-1.9c0.5-0.6,1.4-0.6,1.9-0.1l2.7,2.4c0.6,0.5,0.6,1.4,0.1,1.9C65.8,40.4,65.6,40.5,65.5,40.6z M31.8,49.9
    c-0.3,0.1-0.7,0.1-1,0c-0.7-0.3-1-1.1-0.7-1.8L31,46c0.3-0.7,1.1-1,1.8-0.7c0.7,0.3,1,1.1,0.7,1.8l-0.9,2.1
    C32.4,49.5,32.1,49.8,31.8,49.9z M42.1,41.2c-0.2,0.1-0.4,0.1-0.6,0.1c-0.7,0-1.3-0.7-1.3-1.4l0.1-2.7c0-0.7,0.7-1.3,1.4-1.3
    c0.7,0,1.3,0.7,1.3,1.4L43,40C42.9,40.6,42.6,41,42.1,41.2z M51.3,35.6c0,0-0.1,0-0.1,0c-0.7,0.2-1.5-0.2-1.7-0.9l-0.8-2.9
    c-0.2-0.7,0.2-1.5,0.9-1.7c0.7-0.2,1.5,0.2,1.7,0.9l0.8,2.9C52.3,34.6,51.9,35.3,51.3,35.6z M61.2,31.2c-0.3,0.1-0.6,0.1-0.9,0
    l-3-0.9c-0.7-0.2-1.1-1-0.9-1.7c0.2-0.7,1-1.1,1.7-0.9l3,0.9c0.7,0.2,1.1,1,0.9,1.7C61.9,30.7,61.6,31,61.2,31.2z M30.6,40.1
    c-0.6,0.2-1.2,0-1.6-0.5c-0.4-0.6-0.3-1.5,0.3-1.9l2.5-1.8c0.6-0.4,1.5-0.3,1.9,0.3s0.3,1.5-0.3,1.9L30.9,40
    C30.8,40,30.7,40.1,30.6,40.1z" fill-opacity=".5">
        <animate attributeName="fill-opacity"
             begin="0s" dur="1.4s"
             values="0.5;1;0.5"
             calcMode="linear"
             repeatCount="indefinite" />
    </path>
    <path d="M196.4,97.6L163.1,83c-0.6-0.3-0.9-0.9-0.8-1.5l6.1-33.6c-4.3-2.2-6.3-7.4-4.3-11.9l0.1-0.1
    c1.5-3.4,4.9-5.6,8.6-5.5c2.4-3.4,6.8-8.6,12.1-9.4c3.7-0.6,7.5,0.7,11.3,1.9c3.9,1.2,7.5,2.4,10.5,1.5c2.8-0.8,4.9-2.7,5.9-5.1
    c0.7-1.7,0.7-3.5,0-4.8c-1.8-3.3-4.1-5.1-4.1-5.1c-0.5-0.4-0.6-1.1-0.4-1.6c0.3-0.6,0.9-0.9,1.5-0.8c0.5,0.1,11.4,2.4,15,15.1
    c2.1,7.5-0.2,12.8-1.8,15.3c1.6,0.7,3.8,2,5.5,4.7c2.8,4.4,3,8.7,0.6,13.1c2.4,2.6,3,6.4,1.5,9.7l-0.1,0.1c-2,4.5-7.1,6.6-11.6,4.9
    L198,97.2C197.6,97.7,196.9,97.9,196.4,97.6z M174.8,85.2l21.7,9.5l19.4-25.6l-30.6-13.5L174.8,85.2z M169.7,82.9l2.6,1.1l10.5-29.6
    l-5.1-2.3L169.7,82.9z M165.2,81l2,0.9l7.9-30.7l-4.2-1.8L165.2,81z M214.1,12c0.2,0.4,0.5,0.8,0.7,1.2c1.1,2,1.2,4.7,0.2,7.2
    c-1.3,3.2-4.1,5.6-7.7,6.7c-3.8,1.1-8-0.3-12.1-1.6c-3.4-1.1-7-2.3-10-1.8c-4.8,0.7-9.1,6.5-10.7,8.9c-0.3,0.4-0.8,0.7-1.3,0.6
    c-2.8-0.3-5.5,1.2-6.6,3.8l-0.1,0.1c-1.4,3.2,0.1,7.1,3.3,8.5l49.3,21.7c3.2,1.4,7.1-0.1,8.5-3.3l0.1-0.1c1.1-2.6,0.5-5.6-1.6-7.4
    c-0.5-0.4-0.6-1.2-0.2-1.8c0.1-0.2,0.2-0.3,0.3-0.5c2.1-3.6,2-7-0.3-10.6c-2.3-3.6-5.6-4-5.6-4c-0.5-0.1-0.9-0.4-1.1-0.9
    c-0.2-0.5-0.1-1,0.3-1.4c0.2-0.2,5-5.5,2.4-14.4C220.3,17.2,217,13.9,214.1,12z M180.6,45c-0.3-0.1-0.5-0.4-0.7-0.7
    c-0.3-0.7,0-1.5,0.7-1.8l2.6-1.2c0.7-0.3,1.5,0,1.8,0.7c0.3,0.7,0,1.5-0.7,1.8l-2.6,1.2C181.3,45.2,180.9,45.2,180.6,45z M204,53.2
    c-0.4-0.2-0.8-0.6-0.8-1.1l-0.3-2.8c-0.1-0.7,0.5-1.4,1.2-1.5c0.7-0.1,1.4,0.5,1.5,1.2l0.3,2.8c0.1,0.7-0.5,1.4-1.2,1.5
    C204.4,53.4,204.2,53.3,204,53.2z M193.1,48.2c-0.1,0-0.1-0.1-0.2-0.1c-0.6-0.4-0.8-1.2-0.4-1.9l1.9-3c0.4-0.6,1.2-0.8,1.9-0.4
    c0.6,0.4,0.8,1.2,0.4,1.9l-1.9,3C194.5,48.2,193.8,48.5,193.1,48.2z M221.1,59.6c-0.4-0.2-0.8-0.6-0.8-1.1l-0.2-2.2
    c-0.1-0.7,0.5-1.4,1.2-1.5c0.7-0.1,1.4,0.5,1.5,1.2l0.2,2.2c0.1,0.7-0.5,1.4-1.2,1.5C221.5,59.7,221.3,59.7,221.1,59.6z M212.6,53.8
    c-0.5-0.2-0.8-0.6-0.8-1.2l-0.2-3.6c0-0.7,0.5-1.4,1.3-1.4c0.7,0,1.4,0.5,1.4,1.3l0.2,3.6c0,0.7-0.5,1.4-1.3,1.4
    C213,53.9,212.8,53.9,212.6,53.8z M182.2,36.6c-0.3-0.1-0.6-0.4-0.7-0.7c-0.3-0.7,0.1-1.5,0.8-1.8l2.1-0.8c0.7-0.3,1.5,0.1,1.8,0.8
    c0.3,0.7-0.1,1.5-0.8,1.8l-2.1,0.8C182.9,36.7,182.6,36.7,182.2,36.6z M195.7,37.7c-0.2-0.1-0.3-0.2-0.5-0.3
    c-0.5-0.6-0.5-1.4,0.1-1.9l2-1.8c0.6-0.5,1.4-0.5,1.9,0.1c0.5,0.6,0.5,1.4-0.1,1.9l-2,1.8C196.7,37.9,196.1,37.9,195.7,37.7z
     M206.1,40.3c0,0-0.1,0-0.1-0.1c-0.7-0.4-0.9-1.2-0.5-1.8l1.4-2.6c0.4-0.7,1.2-0.9,1.8-0.5c0.7,0.4,0.9,1.2,0.5,1.8l-1.4,2.6
    C207.5,40.3,206.8,40.5,206.1,40.3z M216.3,44.1c-0.3-0.1-0.5-0.3-0.6-0.6l-1.5-2.7c-0.4-0.7-0.1-1.5,0.5-1.8
    c0.7-0.4,1.5-0.1,1.8,0.5l1.5,2.7c0.4,0.7,0.1,1.5-0.5,1.8C217.1,44.3,216.6,44.3,216.3,44.1z M188.3,28.9c-0.5-0.2-0.9-0.8-0.8-1.4
    c0.1-0.7,0.8-1.3,1.5-1.1l3.1,0.5c0.7,0.1,1.3,0.8,1.1,1.5s-0.8,1.3-1.5,1.1l-3.1-0.5C188.5,28.9,188.4,28.9,188.3,28.9z" fill-opacity=".5">
        <animate attributeName="fill-opacity"
             begin="0.7s" dur="1.4s"
             values="0.5;1;0.5"
             calcMode="linear"
             repeatCount="indefinite" />
    </path>
    <path d="M144.8,97.4h-39.5c-0.7,0-1.3-0.5-1.4-1.1l-8.6-36.1c-5.3-0.3-9.5-4.6-9.5-9.9V50c0-4.1,2.4-7.7,6.2-9.2
    c0.9-4.5,3-11.6,7.9-14.7c3.4-2.2,7.8-2.6,12.1-3c4.4-0.4,8.5-0.9,11.1-3c2.4-2,3.7-4.8,3.7-7.7c-0.1-2-0.8-3.8-2.1-4.8
    c-3.3-2.4-6.3-3.3-6.3-3.3c-0.7-0.2-1.1-0.8-1.1-1.5c0-0.7,0.5-1.3,1.2-1.4c0.5-0.1,12.4-2.6,21.5,8.5c5.4,6.5,5.4,12.8,4.9,16.1
    c1.9,0,4.6,0.3,7.5,2.3c4.7,3.2,6.8,7.3,6.3,12.8c3.5,1.6,5.8,5.1,5.8,9v0.2c0,5.3-4.2,9.7-9.5,9.9l-8.6,36.1
    C146.1,96.9,145.5,97.4,144.8,97.4z M117.9,94.4h25.8l8.1-34h-36.4L117.9,94.4z M111.8,94.4h3.1l-2.5-34h-6.1L111.8,94.4z
     M106.5,94.4h2.4l-5.5-34h-5L106.5,94.4z M125.1,4.3c0.4,0.3,0.8,0.6,1.3,0.9c2,1.5,3.2,4.1,3.3,7.1c0.1,3.8-1.6,7.4-4.7,10
    c-3.3,2.8-8.1,3.2-12.7,3.7c-3.9,0.4-8,0.8-10.8,2.6c-4.5,2.8-6.2,10.4-6.7,13.6c-0.1,0.5-0.5,1-1,1.2c-3,0.9-4.9,3.6-4.9,6.7v0.2
    c0,3.9,3.1,7,7,7h58.7c3.9,0,7-3.1,7-7V50c0-3.1-2-5.8-4.9-6.7c-0.7-0.2-1.1-0.9-1-1.7c0-0.2,0.1-0.4,0.1-0.6c0.5-4.5-1-7.8-5-10.4
    c-3.8-2.5-7.3-1.6-7.3-1.6c-0.5,0.2-1.1,0-1.5-0.4c-0.4-0.4-0.5-1-0.3-1.5c0.1-0.3,2.5-7.6-3.9-15.4C133.5,6.8,128.7,4.9,125.1,4.3z
     M106.1,51.9c-0.3,0-0.7-0.1-1-0.4c-0.6-0.5-0.7-1.5-0.1-2.1l2.1-2.4c0.5-0.6,1.5-0.7,2.1-0.1c0.6,0.5,0.7,1.5,0.1,2.1l-2.1,2.4
    C106.9,51.7,106.5,51.9,106.1,51.9z M133,49.8c-0.5,0-1-0.3-1.3-0.8l-1.5-2.7c-0.4-0.7-0.1-1.6,0.6-2c0.7-0.4,1.6-0.1,2,0.6l1.5,2.7
    c0.4,0.7,0.1,1.6-0.6,2C133.5,49.8,133.2,49.8,133,49.8z M120,49.5c-0.1,0-0.2,0-0.2,0c-0.8-0.1-1.4-0.9-1.2-1.7l0.6-3.8
    c0.1-0.8,0.9-1.4,1.7-1.2c0.8,0.1,1.4,0.9,1.2,1.7l-0.6,3.8C121.3,49,120.7,49.5,120,49.5z M152.8,48.7c-0.5,0-1-0.3-1.3-0.7
    l-1.2-2.1c-0.4-0.7-0.2-1.6,0.5-2c0.7-0.4,1.6-0.2,2,0.5l1.2,2.1c0.4,0.7,0.2,1.6-0.5,2C153.3,48.6,153,48.7,152.8,48.7z
     M141.8,46.6c-0.5,0-1.1-0.3-1.3-0.8l-1.8-3.5c-0.4-0.7-0.1-1.6,0.7-2c0.7-0.4,1.6-0.1,2,0.7l1.8,3.5c0.4,0.7,0.1,1.6-0.7,2
    C142.3,46.5,142.1,46.6,141.8,46.6z M104,42.7c-0.4,0-0.8-0.1-1-0.4c-0.6-0.6-0.6-1.5,0-2.1l1.8-1.8c0.6-0.6,1.5-0.6,2.1,0
    c0.6,0.6,0.6,1.5,0,2.1l-1.8,1.8C104.8,42.6,104.4,42.7,104,42.7z M117.9,38c-0.2,0-0.4,0-0.6-0.1c-0.7-0.3-1.1-1.2-0.7-1.9l1.2-2.7
    c0.3-0.7,1.2-1.1,1.9-0.7c0.7,0.3,1.1,1.2,0.7,1.9l-1.2,2.7C119,37.7,118.5,38,117.9,38z M129.4,36c0,0-0.1,0-0.1,0
    c-0.8-0.1-1.4-0.8-1.3-1.6l0.3-3.2c0.1-0.8,0.8-1.4,1.6-1.3c0.8,0.1,1.4,0.8,1.3,1.6l-0.3,3.2C130.8,35.4,130.2,36,129.4,36z
     M141.2,35.4c-0.3,0-0.6-0.1-0.9-0.3l-2.7-2.1c-0.6-0.5-0.8-1.4-0.3-2.1c0.5-0.6,1.4-0.8,2.1-0.3l2.7,2.1c0.6,0.5,0.8,1.4,0.3,2.1
    C142.1,35.2,141.7,35.4,141.2,35.4z M106.7,32.4c-0.6,0-1.2-0.4-1.4-1.1c-0.2-0.8,0.2-1.6,1-1.8l3.2-0.9c0.8-0.2,1.6,0.2,1.8,1
    s-0.2,1.6-1,1.8l-3.2,0.9C107,32.4,106.8,32.4,106.7,32.4z" />
     <animate attributeName="fill-opacity"
             begin="0s" dur="1.4s"
             values="0.5;1;0.5"
             calcMode="linear"
             repeatCount="indefinite" />
</svg>
